<?xml version="1.0" standalone="no"?>
<!DOCTYPE svg PUBLIC "-//W3C//DTD SVG 20010904//EN"
 "http://www.w3.org/TR/2001/REC-SVG-20010904/DTD/svg10.dtd">
<svg version="1.0" xmlns="http://www.w3.org/2000/svg"
 width="225.000000pt" height="225.000000pt" viewBox="0 0 225.000000 225.000000"
 preserveAspectRatio="xMidYMid meet">

<g transform="translate(0.000000,225.000000) scale(0.100000,-0.100000)"
fill="#000000" stroke="none">
<path d="M970 2171 c-74 -43 -179 -103 -232 -134 -54 -32 -142 -82 -195 -114
-54 -31 -156 -89 -228 -130 -72 -41 -140 -85 -152 -99 l-23 -25 0 -544 0 -545
28 -30 c15 -16 54 -45 87 -63 33 -19 103 -59 155 -89 571 -331 691 -398 715
-398 24 0 141 65 713 397 53 31 124 71 157 90 33 18 72 47 88 63 l27 30 0 545
0 544 -22 25 c-13 14 -81 58 -153 99 -71 41 -174 99 -227 130 -54 32 -142 82
-195 114 -281 162 -374 213 -390 213 -10 -1 -79 -36 -153 -79z m-62 -673 l2
-218 210 0 210 0 0 220 0 221 113 -3 112 -3 3 -592 2 -593 -115 0 -115 0 0
260 0 260 -210 0 -210 0 0 -260 0 -261 -117 3 -118 3 -3 580 c-1 319 0 586 3
593 3 9 33 12 117 10 l113 -3 3 -217z"/>
</g>
</svg>
